<svg id="Layer_1" data-name="Layer 1" xmlns="http://www.w3.org/2000/svg" viewBox="0 0 549.13 115.71">
    <title>logo-2</title>
    <path d="M465.92,402.37c2.42,0,8.33-.88,8.33-10.19V381c0-10,7.84-12.31,7.84-12.31v-.2s-7.84-2.71-7.84-12.31v-10c0-9.31-5.91-10.18-8.33-10.18h-1.36v-7.18s.88-.09,2.23-.09c4.65,0,15.69,1.55,15.69,16.87v8.14c0,10.09,8.23,10.77,8.23,10.77v8.34s-8.23.68-8.23,10.57v9.31c0,15.41-11,17-15.69,17a11.08,11.08,0,0,1-2.23-.2v-7.17ZM373.5,328.42c6.85,3.45,13.32,6.8,19.89,9.91.83.4,2.32-.2,3.33-.7,6.75-3.32,13.45-6.73,20.17-10.12,5.77-2.9,5.77-2.9,11.61,1.1l-27.29,13.62c2.23,1.2,3.93,2.15,5.67,3,6.51,3.29,13.07,6.5,19.54,9.89a5.08,5.08,0,0,0,5.25,0c9.34-4.82,18.74-9.5,28.13-14.22,1.06-.53,2.16-1,3.55-1.62a28.1,28.1,0,0,1,.31,2.81c0,9.65,0,19.3.06,29a3.67,3.67,0,0,1-2.33,3.84c-10.21,5.05-20.35,10.26-30.57,15.29a4.68,4.68,0,0,1-3.6,0c-10.23-5-20.36-10.23-30.57-15.28a3.64,3.64,0,0,1-2.31-3.86c.1-6.76-.23-13.54.14-20.29.22-3.94-1.22-5.84-4.68-7.48-9.79-4.63-19.38-9.67-29.44-14.74a17.84,17.84,0,0,1,2.08-1.45q32.28-16.33,64.61-32.57a4.64,4.64,0,0,1,3.59-.18q29.7,14.82,59.29,29.84a2.41,2.41,0,0,1,.47.44c-3.83,3.69-5.45,4-10,1.68-16.3-8.22-32.58-16.47-48.94-24.58a5.83,5.83,0,0,0-4.5-.2c-17.08,8.39-34.09,17-51.1,25.49C375.2,327.32,374.58,327.76,373.5,328.42Zm27.8,20.73c0,6.47.1,12.3-.05,18.13a4,4,0,0,0,2.69,4.32q11.35,5.5,22.53,11.37a5,5,0,0,0,5.22-.07c6.47-3.39,12.89-6.95,19.6-9.79,4.35-1.84,6-4.26,5.56-9s-.1-9.6-.1-14.93c-1.75.83-2.84,1.31-3.91,1.85-7.21,3.64-14.37,7.38-21.66,10.86a5.93,5.93,0,0,1-4.44,0c-4.83-2.2-9.5-4.74-14.24-7.14C409,353,405.45,351.23,401.3,349.15Z"
          transform="translate(-360.36 -294.03)" fill="#f26b31" fill-rule="evenodd"/>
    <path d="M558.09,351.67h8.18l-11.7,36h-7.31l-8-24.45-8,24.45h-7.3l-11.57-36h8.39l7.17,24.52,7.91-24.66h7l8,24.66Zm46.47,18.56c0,.74-.07,1.42-.14,2.23H578.18c.94,5.83,5,9.08,10.28,9.08,4,0,6.83-1.49,9.67-4.27l4.8,4.27a18,18,0,0,1-14.61,6.71c-10.35,0-18.33-7.52-18.33-18.63,0-10.3,7.24-18.7,17.45-18.7C598.81,350.92,604.56,359.86,604.56,370.23Zm-8.12-3.18c-.54-5.29-3.65-9.42-9.06-9.42-5,0-8.53,3.86-9.27,9.42Zm53.3,2.5c0,11.92-8.12,18.63-16.64,18.63a14.57,14.57,0,0,1-12.11-6.3v5.55h-8.18V338H621v19.64c2.64-3.73,6.36-6.71,12.11-6.71C641.56,350.92,649.74,357.63,649.74,369.55Zm-8.32,0c0-7-4.67-11.51-10.21-11.51s-10.42,4.53-10.42,11.51,4.87,11.52,10.42,11.52S641.42,376.66,641.42,369.55ZM668,341.85h-8.19v9.82h-4.53v7h4.53v18.83c0,7.86,4.26,10.5,10.28,10.5a14.28,14.28,0,0,0,7.37-1.82v-6.71a11,11,0,0,1-5.07,1.22c-2.77,0-4.39-1.29-4.39-4.47V358.71h9.6v-7H668Zm26,17.88v-8.06h-8.19v35.76h8.19V373.82c0-9.48,5-14.16,12.17-14.16h.48V351C700.4,350.72,696.28,354.38,694.05,359.73Zm48,6.5v21.2H734V383a14.45,14.45,0,0,1-11.57,5.15c-6.77,0-12.72-3.86-12.72-11V377c0-7.72,6.16-11.51,14.48-11.51A30,30,0,0,1,734,367v-.88c0-5-3.11-7.66-8.79-7.66A24.71,24.71,0,0,0,715,360.68l-2.24-6.57a30.64,30.64,0,0,1,13.6-3C736.93,351.13,742.07,356.68,742.07,366.23Zm-7.91,6a23.46,23.46,0,0,0-8.19-1.42c-5.14,0-8.18,2.1-8.18,5.76v.13c0,3.39,3,5.29,6.9,5.29,5.41,0,9.47-3,9.47-7.52ZM752,346.18h8.79v-7.79H752Zm.34,41.25h8.18V351.67h-8.18Zm38.21-36.51c-5.54,0-8.86,2.92-11.16,6.3v-5.55h-8.18v35.76h8.18V367.25c0-5.56,3.32-8.88,8-8.88s7.64,3.19,7.64,8.74v20.32h8.19V364.67C803.22,356.34,798.55,350.92,790.5,350.92Zm22.73-4.74H822v-7.79h-8.8Zm.34,41.25h8.19V351.67h-8.19Zm38.22-36.51c-5.55,0-8.86,2.92-11.16,6.3v-5.55h-8.19v35.76h8.19V367.25c0-5.56,3.31-8.88,8-8.88s7.64,3.19,7.64,8.74v20.32h8.18V364.67C864.5,356.34,859.84,350.92,851.79,350.92Zm57.7.75v28.45c0,12.67-6.9,18.29-19.21,18.29a30.72,30.72,0,0,1-16-4.27l3.05-6.16a23.2,23.2,0,0,0,12.71,3.79c7.31,0,11.3-3.79,11.3-11V378c-3,3.86-6.7,6.57-12.58,6.57-8.39,0-16.23-6.16-16.23-16.8s7.91-16.87,16.23-16.87c6,0,9.74,2.78,12.51,6.1v-5.35Zm-8,16.12c0-6-4.81-10-10.49-10s-10.14,3.93-10.14,9.89a9.76,9.76,0,0,0,10.14,10C896.63,377.68,901.44,373.68,901.44,367.79Z"
          transform="translate(-360.36 -294.03)" fill="#fff"/>
</svg>