<svg xmlns="http://www.w3.org/2000/svg" viewBox="0 0 549.13 115.71">
    <defs>
        <style>.cls-1{fill:#f26b31;fill-rule:evenodd;}.cls-2{fill:#fff;}</style>
    </defs>
    <title>webtraining</title>
    <g id="Layer_2" data-name="Layer 2">
        <g id="Layer_1-2" data-name="Layer 1">
            <path class="cls-1"
                  d="M105.56,108.34c2.42,0,8.33-.87,8.33-10.18V87c0-10,7.84-12.32,7.84-12.32V74.5s-7.84-2.72-7.84-12.32v-10c0-9.31-5.91-10.18-8.33-10.18H104.2V34.84a21.84,21.84,0,0,1,2.23-.1c4.65,0,15.69,1.55,15.69,16.87v8.15c0,10.08,8.23,10.76,8.23,10.76v8.34s-8.23.68-8.23,10.57v9.31c0,15.42-11,17-15.69,17a11.08,11.08,0,0,1-2.23-.2v-7.17Z"/>
            <polygon class="cls-2"
                     points="197.73 57.64 205.91 57.64 194.21 93.68 186.9 93.68 178.92 69.23 170.87 93.68 163.57 93.68 152 57.64 160.39 57.64 167.56 82.16 175.47 57.51 182.44 57.51 190.42 82.16 197.73 57.64"/>
            <path class="cls-2"
                  d="M244.2,76.2c0-10.36-5.75-19.3-17.12-19.3-10.21,0-17.45,8.4-17.45,18.69,0,11.11,8,18.63,18.33,18.63a18.06,18.06,0,0,0,14.61-6.7l-4.8-4.27c-2.84,2.77-5.68,4.27-9.67,4.27-5.28,0-9.34-3.26-10.28-9.08h26.24C244.13,77.62,244.2,77,244.2,76.2ZM217.75,73c.74-5.56,4.26-9.42,9.27-9.42,5.41,0,8.52,4.14,9.06,9.42Z"/>
            <path class="cls-2"
                  d="M272.74,56.9c-5.75,0-9.47,3-12.1,6.7V44h-8.19V93.41h8.19V87.85a14.53,14.53,0,0,0,12.1,6.3c8.52,0,16.64-6.7,16.64-18.63S281.2,56.9,272.74,56.9ZM270.85,87c-5.55,0-10.42-4.54-10.42-11.52S265.3,64,270.85,64s10.21,4.47,10.21,11.51S276.46,87,270.85,87Z"/>
            <path class="cls-2"
                  d="M307.65,47.82h-8.19v9.82h-4.53v7h4.53V83.52c0,7.86,4.26,10.5,10.28,10.5a14.34,14.34,0,0,0,7.38-1.83V85.48A10.94,10.94,0,0,1,312,86.7c-2.77,0-4.39-1.29-4.39-4.47V64.69h9.6v-7h-9.6Z"/>
            <path class="cls-2"
                  d="M333.69,65.7V57.64H325.5V93.41h8.19V79.79c0-9.48,5-14.15,12.17-14.15h.48V57C340.05,56.69,335.92,60.35,333.69,65.7Z"/>
            <path class="cls-2"
                  d="M366,57.1a30.64,30.64,0,0,0-13.6,3l2.24,6.57a24.87,24.87,0,0,1,10.21-2.23c5.68,0,8.79,2.71,8.79,7.65V73a30,30,0,0,0-9.87-1.49c-8.32,0-14.48,3.79-14.48,11.52v.13c0,7.18,6,11,12.72,11A14.45,14.45,0,0,0,373.6,89v4.4h8.11V72.21C381.71,62.65,376.57,57.1,366,57.1Zm7.78,23.37c0,4.47-4.06,7.52-9.47,7.52-3.86,0-6.9-1.9-6.9-5.28v-.14c0-3.66,3-5.76,8.18-5.76a23.46,23.46,0,0,1,8.19,1.42Z"/>
            <rect class="cls-2" x="391.59" y="44.37" width="8.79" height="7.79"/>
            <rect class="cls-2" x="391.93" y="57.64" width="8.18" height="35.77"/>
            <path class="cls-2"
                  d="M430.14,56.9c-5.54,0-8.86,2.91-11.16,6.3V57.64H410.8V93.41H419V73.22c0-5.55,3.32-8.87,8-8.87s7.65,3.18,7.65,8.74V93.41h8.18V70.65C442.86,62.32,438.19,56.9,430.14,56.9Z"/>
            <rect class="cls-2" x="452.87" y="44.37" width="8.79" height="7.79"/>
            <rect class="cls-2" x="453.21" y="57.64" width="8.18" height="35.77"/>
            <path class="cls-2"
                  d="M491.43,56.9c-5.55,0-8.86,2.91-11.16,6.3V57.64h-8.19V93.41h8.19V73.22c0-5.55,3.31-8.87,8.05-8.87S496,67.53,496,73.09V93.41h8.18V70.65C504.14,62.32,499.48,56.9,491.43,56.9Z"/>
            <path class="cls-2"
                  d="M540.94,57.64V63c-2.77-3.31-6.49-6.09-12.51-6.09-8.32,0-16.23,6.23-16.23,16.86s7.84,16.8,16.23,16.8c5.88,0,9.6-2.71,12.58-6.57v2.78c0,7.18-4,11-11.3,11A23.2,23.2,0,0,1,517,94l-3,6.16a30.72,30.72,0,0,0,16,4.27c12.31,0,19.21-5.62,19.21-18.29V57.64Zm-10.35,26c-5.61,0-10.14-4-10.14-10s4.46-9.89,10.14-9.89,10.49,3.93,10.49,10S536.27,83.65,530.59,83.65Z"/>
            <path class="cls-1"
                  d="M129.57,30.13Q99.95,15.16,70.28.28a4.64,4.64,0,0,0-3.59.19Q34.33,16.65,2.08,33A19.53,19.53,0,0,0,0,34.49c10.06,5.07,19.66,10.1,29.44,14.73,3.46,1.64,4.9,3.54,4.68,7.49-.37,6.74,0,13.52-.14,20.29a3.63,3.63,0,0,0,2.31,3.85C46.5,85.9,56.64,91.11,66.86,96.13a4.64,4.64,0,0,0,3.6,0c10.22-5,20.36-10.23,30.57-15.29A3.67,3.67,0,0,0,103.36,77c-.1-9.65,0-19.3-.06-28.95a28.1,28.1,0,0,0-.31-2.81c-1.39.63-2.49,1.09-3.54,1.62-9.4,4.72-18.8,9.41-28.14,14.23a5.08,5.08,0,0,1-5.24,0c-6.47-3.38-13-6.59-19.55-9.89-1.74-.88-3.44-1.83-5.67-3L68.14,34.58c-5.84-4-5.84-4-11.61-1.09-6.72,3.38-13.42,6.8-20.17,10.12-1,.49-2.5,1.09-3.33.7-6.57-3.12-13-6.46-19.89-9.92,1.08-.66,1.71-1.1,2.38-1.44,17-8.53,34-17.09,51.1-25.49a5.83,5.83,0,0,1,4.5.2C87.48,15.77,103.76,24,120.06,32.24c4.53,2.29,6.15,2,10-1.68A2.35,2.35,0,0,0,129.57,30.13Zm-88.63,25c4.15,2.08,7.68,3.84,11.2,5.62,4.74,2.4,9.42,4.93,14.24,7.13a5.93,5.93,0,0,0,4.44,0C78.11,64.42,85.27,60.68,92.48,57c1.07-.53,2.16-1,3.91-1.85,0,5.33-.35,10.17.1,14.93s-1.21,7.13-5.56,9c-6.71,2.84-13.13,6.39-19.6,9.78a5,5,0,0,1-5.22.07Q54.93,83.08,43.58,77.57a4,4,0,0,1-2.69-4.32C41,67.43,40.94,61.6,40.94,55.12Z"/>
        </g>
    </g>
</svg>